<svg width="290" height="290" viewBox="0 0 290 290" fill="none" xmlns="http://www.w3.org/2000/svg">
<path d="M145 289.999C225.081 289.999 289.999 225.081 289.999 145C289.999 64.9186 225.081 0 145 0C64.9186 0 0 64.9186 0 145C0 225.081 64.9186 289.999 145 289.999Z" fill="#F4C82E"/>
<path d="M145 289.999C225.081 289.999 289.999 225.081 289.999 145C289.999 64.9186 225.081 0 145 0C64.9186 0 0 64.9186 0 145C0 225.081 64.9186 289.999 145 289.999Z" fill="#F4C82E"/>
<path d="M59.9391 139.263C59.9391 139.263 63.7054 133.981 61.5215 129.223C55.3854 115.833 34.9529 125.85 36.3407 144.091C36.3407 144.091 37.7144 181.963 91.6434 183.747C105.699 184.216 124.776 181.171 140.043 164.317C150.587 152.677 147.718 131.249 134.194 126.266C119.621 120.895 100.887 124.787 86.9043 146.076C73.6175 166.297 47.4136 152.237 47.8413 138.738C48.2396 126.248 62.7098 131.132 59.9391 139.263Z" fill="#333333"/>
<path d="M230.043 139.263C230.043 139.263 226.276 133.981 228.456 129.223C234.592 115.833 255.026 125.85 253.642 144.091C253.642 144.091 252.268 181.963 198.334 183.747C184.283 184.216 165.206 181.171 149.939 164.317C139.395 152.677 142.265 131.249 155.789 126.266C170.362 120.895 189.096 124.787 203.078 146.076C216.365 166.297 242.569 152.237 242.141 138.738C241.742 126.248 227.268 131.132 230.043 139.263Z" fill="#333333"/>
</svg>
